<svg width="294" height="175" viewBox="0 0 294 175" fill="none" xmlns="http://www.w3.org/2000/svg">
<rect x="1" y="1" width="292" height="173" rx="4" fill="white" stroke="white" stroke-width="2"/>
<path d="M111 64C111 41.3776 92.6224 23 70 23C47.3776 23 29 41.3776 29 64C29 86.6224 47.3776 105 70 105C92.6224 105 111 86.6224 111 64Z" fill="#C94D08"/>
<path d="M111 64C111 41.3776 92.6224 23 70 23V105C92.6224 105 111 86.6224 111 64Z" fill="#A23C02"/>
<mask id="mask0_545_13" style="mask-type:alpha" maskUnits="userSpaceOnUse" x="29" y="23" width="82" height="82">
<path d="M111 64C111 41.3776 92.6224 23 70 23C47.3776 23 29 41.3776 29 64C29 86.6224 47.3776 105 70 105C92.6224 105 111 86.6224 111 64Z" fill="#C94D08"/>
</mask>
<g mask="url(#mask0_545_13)">
<path d="M87.0242 86.3387V107.378H102V95.032L87.0242 86.3387Z" fill="#FEA929"/>
<path d="M80.9974 74.6139V59.5651H59.7026V74.6139L70.3682 68.3314L80.9974 74.6139Z" fill="#FEA929"/>
<path d="M38.7 107.378H53.6758V86.3387L38.7 95.032V107.378Z" fill="#FEA929"/>
<path d="M55.2464 79.07V107.378H85.4536V79.07L70.3683 70.1211L55.2464 79.07ZM69.6743 106.209H64.0492V93.0596H69.6743V106.209ZM76.6508 106.209H71.0257V93.0596H76.6508V106.209ZM76.943 86.8866H63.7935C63.7935 83.2705 66.7522 80.3119 70.3683 80.3119C73.9844 80.3119 76.943 83.2705 76.943 86.8866Z" fill="#EEF3F8"/>
<path d="M61.9672 58.0675H78.7328L71.1353 43.9318V39.3295H74.2766V37.7589H71.1353V35.3481H69.5647V37.7589H66.4234V39.3295H69.5647V43.9318L61.9672 58.0675Z" fill="#FEA929"/>
</g>
<path d="M181 64C181 41.3776 162.622 23 140 23C117.378 23 99 41.3776 99 64C99 86.6224 117.378 105 140 105C162.622 105 181 86.6224 181 64Z" fill="#062471"/>
<path d="M181 64C181 41.3776 162.622 23 140 23V105C162.622 105 181 86.6224 181 64Z" fill="#082D8D"/>
<mask id="mask1_545_13" style="mask-type:alpha" maskUnits="userSpaceOnUse" x="99" y="23" width="82" height="82">
<path d="M181 64C181 41.3776 162.622 23 140 23C117.378 23 99 41.3776 99 64C99 86.6224 117.378 105 140 105C162.622 105 181 86.6224 181 64Z" fill="#957663"/>
</mask>
<g mask="url(#mask1_545_13)">
<path d="M160 66.9555L140.717 46.4527V41.327H144.382V39.9655H140.717V35H139.363V39.8854H135.697V41.2469H139.363V46.3726L120 66.9555H120.08V107H160V66.9555ZM139.363 96.1079H130.996V87.6986H139.363V96.1079ZM139.363 86.337H130.996V77.9277H139.363V86.337ZM149.084 96.1079H140.717V87.6986H149.084V96.1079ZM149.084 86.337H140.717V77.9277H149.084V86.337Z" fill="#76E8E1"/>
</g>
<path d="M38.82 143.32C38.2067 143.32 37.62 143.233 37.06 143.06C36.5 142.887 35.9867 142.627 35.52 142.28C35.0533 141.933 34.6467 141.513 34.3 141.02C33.9533 140.513 33.68 139.927 33.48 139.26L36.02 138.26C36.2067 138.98 36.5333 139.58 37 140.06C37.4667 140.527 38.08 140.76 38.84 140.76C39.12 140.76 39.3867 140.727 39.64 140.66C39.9067 140.58 40.14 140.473 40.34 140.34C40.5533 140.193 40.72 140.013 40.84 139.8C40.96 139.587 41.02 139.34 41.02 139.06C41.02 138.793 40.9733 138.553 40.88 138.34C40.7867 138.127 40.6267 137.927 40.4 137.74C40.1867 137.553 39.9 137.373 39.54 137.2C39.1933 137.027 38.76 136.847 38.24 136.66L37.36 136.34C36.9733 136.207 36.58 136.027 36.18 135.8C35.7933 135.573 35.44 135.3 35.12 134.98C34.8 134.66 34.5333 134.287 34.32 133.86C34.12 133.42 34.02 132.927 34.02 132.38C34.02 131.82 34.1267 131.3 34.34 130.82C34.5667 130.327 34.88 129.9 35.28 129.54C35.6933 129.167 36.18 128.88 36.74 128.68C37.3133 128.467 37.9467 128.36 38.64 128.36C39.36 128.36 39.98 128.46 40.5 128.66C41.0333 128.847 41.48 129.093 41.84 129.4C42.2133 129.693 42.5133 130.02 42.74 130.38C42.9667 130.74 43.1333 131.08 43.24 131.4L40.86 132.4C40.7267 132 40.48 131.64 40.12 131.32C39.7733 131 39.2933 130.84 38.68 130.84C38.0933 130.84 37.6067 130.98 37.22 131.26C36.8333 131.527 36.64 131.88 36.64 132.32C36.64 132.747 36.8267 133.113 37.2 133.42C37.5733 133.713 38.1667 134 38.98 134.28L39.88 134.58C40.4533 134.78 40.9733 135.013 41.44 135.28C41.92 135.533 42.3267 135.84 42.66 136.2C43.0067 136.56 43.2667 136.973 43.44 137.44C43.6267 137.893 43.72 138.42 43.72 139.02C43.72 139.767 43.5667 140.413 43.26 140.96C42.9667 141.493 42.5867 141.933 42.12 142.28C41.6533 142.627 41.1267 142.887 40.54 143.06C39.9533 143.233 39.38 143.32 38.82 143.32ZM54.9039 140.64C54.4506 141.44 53.8372 142.087 53.0639 142.58C52.3039 143.073 51.3706 143.32 50.2639 143.32C49.5172 143.32 48.8239 143.193 48.1839 142.94C47.5572 142.673 47.0106 142.307 46.5439 141.84C46.0772 141.373 45.7106 140.827 45.4439 140.2C45.1906 139.56 45.0639 138.86 45.0639 138.1C45.0639 137.393 45.1906 136.727 45.4439 136.1C45.6972 135.46 46.0506 134.907 46.5039 134.44C46.9572 133.96 47.4906 133.58 48.1039 133.3C48.7306 133.02 49.4172 132.88 50.1639 132.88C50.9506 132.88 51.6506 133.013 52.2639 133.28C52.8772 133.533 53.3906 133.893 53.8039 134.36C54.2172 134.813 54.5306 135.353 54.7439 135.98C54.9572 136.607 55.0639 137.287 55.0639 138.02C55.0639 138.113 55.0639 138.193 55.0639 138.26C55.0506 138.34 55.0439 138.413 55.0439 138.48C55.0306 138.547 55.0239 138.62 55.0239 138.7H47.6439C47.6972 139.1 47.8039 139.447 47.9639 139.74C48.1372 140.02 48.3439 140.26 48.5839 140.46C48.8372 140.647 49.1106 140.787 49.4039 140.88C49.6972 140.96 49.9972 141 50.3039 141C50.9039 141 51.3972 140.867 51.7839 140.6C52.1839 140.32 52.4972 139.973 52.7239 139.56L54.9039 140.64ZM52.5239 136.84C52.5106 136.667 52.4506 136.473 52.3439 136.26C52.2506 136.047 52.1039 135.847 51.9039 135.66C51.7172 135.473 51.4772 135.32 51.1839 135.2C50.9039 135.08 50.5639 135.02 50.1639 135.02C49.6039 135.02 49.1106 135.18 48.6839 135.5C48.2572 135.82 47.9572 136.267 47.7839 136.84H52.5239ZM57.5242 135.44H55.8042V133.2H57.5242V130.2H60.1442V133.2H62.5442V135.44H60.1442V139.24C60.1442 139.467 60.1642 139.68 60.2042 139.88C60.2576 140.067 60.3509 140.227 60.4842 140.36C60.6709 140.573 60.9376 140.68 61.2842 140.68C61.5109 140.68 61.6909 140.66 61.8242 140.62C61.9576 140.567 62.0842 140.5 62.2042 140.42L62.9442 142.72C62.6376 142.867 62.3042 142.973 61.9442 143.04C61.5976 143.12 61.2109 143.16 60.7842 143.16C60.2909 143.16 59.8442 143.087 59.4442 142.94C59.0576 142.78 58.7309 142.567 58.4642 142.3C57.8376 141.7 57.5242 140.847 57.5242 139.74V135.44ZM71.2516 141.72H71.0916C70.7849 142.213 70.3716 142.607 69.8516 142.9C69.3316 143.18 68.7382 143.32 68.0716 143.32C66.8316 143.32 65.9049 142.94 65.2916 142.18C64.6916 141.42 64.3916 140.407 64.3916 139.14V133.2H67.0116V138.82C67.0116 139.527 67.1649 140.053 67.4716 140.4C67.7916 140.733 68.2516 140.9 68.8516 140.9C69.2116 140.9 69.5249 140.827 69.7916 140.68C70.0716 140.52 70.3049 140.313 70.4916 140.06C70.6916 139.793 70.8382 139.487 70.9316 139.14C71.0382 138.78 71.0916 138.4 71.0916 138V133.2H73.7116V143H71.2516V141.72ZM75.8759 133.2H78.3359V134.38H78.4959C78.7359 133.967 79.1093 133.613 79.6159 133.32C80.1226 133.027 80.7493 132.88 81.4959 132.88C82.1226 132.88 82.7159 133.013 83.2759 133.28C83.8493 133.533 84.3493 133.893 84.7759 134.36C85.2159 134.813 85.5626 135.36 85.8159 136C86.0693 136.64 86.1959 137.34 86.1959 138.1C86.1959 138.86 86.0693 139.56 85.8159 140.2C85.5626 140.84 85.2159 141.393 84.7759 141.86C84.3493 142.313 83.8493 142.673 83.2759 142.94C82.7159 143.193 82.1226 143.32 81.4959 143.32C80.7493 143.32 80.1226 143.173 79.6159 142.88C79.1093 142.587 78.7359 142.233 78.4959 141.82H78.3359L78.4959 143.22V147.32H75.8759V133.2ZM80.9559 140.9C81.3026 140.9 81.6293 140.833 81.9359 140.7C82.2559 140.567 82.5359 140.38 82.7759 140.14C83.0159 139.9 83.2093 139.607 83.3559 139.26C83.5026 138.913 83.5759 138.527 83.5759 138.1C83.5759 137.673 83.5026 137.287 83.3559 136.94C83.2093 136.593 83.0159 136.3 82.7759 136.06C82.5359 135.82 82.2559 135.633 81.9359 135.5C81.6293 135.367 81.3026 135.3 80.9559 135.3C80.6093 135.3 80.2759 135.367 79.9559 135.5C79.6493 135.62 79.3759 135.8 79.1359 136.04C78.8959 136.28 78.7026 136.573 78.5559 136.92C78.4093 137.267 78.3359 137.66 78.3359 138.1C78.3359 138.54 78.4093 138.933 78.5559 139.28C78.7026 139.627 78.8959 139.92 79.1359 140.16C79.3759 140.4 79.6493 140.587 79.9559 140.72C80.2759 140.84 80.6093 140.9 80.9559 140.9ZM92.5845 128.68H95.7245L101.485 138.28H101.645L101.485 135.52V128.68H104.165V143H101.325L95.2445 132.86H95.0845L95.2445 135.62V143H92.5845V128.68ZM115.998 140.64C115.544 141.44 114.931 142.087 114.158 142.58C113.398 143.073 112.464 143.32 111.358 143.32C110.611 143.32 109.918 143.193 109.278 142.94C108.651 142.673 108.104 142.307 107.638 141.84C107.171 141.373 106.804 140.827 106.538 140.2C106.284 139.56 106.158 138.86 106.158 138.1C106.158 137.393 106.284 136.727 106.538 136.1C106.791 135.46 107.144 134.907 107.598 134.44C108.051 133.96 108.584 133.58 109.198 133.3C109.824 133.02 110.511 132.88 111.258 132.88C112.044 132.88 112.744 133.013 113.358 133.28C113.971 133.533 114.484 133.893 114.898 134.36C115.311 134.813 115.624 135.353 115.838 135.98C116.051 136.607 116.158 137.287 116.158 138.02C116.158 138.113 116.158 138.193 116.158 138.26C116.144 138.34 116.138 138.413 116.138 138.48C116.124 138.547 116.118 138.62 116.118 138.7H108.738C108.791 139.1 108.898 139.447 109.058 139.74C109.231 140.02 109.438 140.26 109.678 140.46C109.931 140.647 110.204 140.787 110.498 140.88C110.791 140.96 111.091 141 111.398 141C111.998 141 112.491 140.867 112.878 140.6C113.278 140.32 113.591 139.973 113.818 139.56L115.998 140.64ZM113.618 136.84C113.604 136.667 113.544 136.473 113.438 136.26C113.344 136.047 113.198 135.847 112.998 135.66C112.811 135.473 112.571 135.32 112.278 135.2C111.998 135.08 111.658 135.02 111.258 135.02C110.698 135.02 110.204 135.18 109.778 135.5C109.351 135.82 109.051 136.267 108.878 136.84H113.618ZM116.596 133.2H119.536L121.156 139.34H121.296L123.236 133.2H125.936L127.896 139.34H128.036L129.636 133.2H132.536L129.396 143H126.576L124.616 136.82H124.476L122.516 143H119.736L116.596 133.2ZM150.573 140.7C149.867 141.553 149.033 142.207 148.073 142.66C147.113 143.1 146.04 143.32 144.853 143.32C143.787 143.32 142.793 143.127 141.873 142.74C140.967 142.353 140.18 141.827 139.513 141.16C138.847 140.493 138.32 139.707 137.933 138.8C137.547 137.88 137.353 136.893 137.353 135.84C137.353 134.787 137.547 133.807 137.933 132.9C138.32 131.98 138.847 131.187 139.513 130.52C140.18 129.853 140.967 129.327 141.873 128.94C142.793 128.553 143.787 128.36 144.853 128.36C146 128.36 147.007 128.56 147.873 128.96C148.753 129.36 149.533 129.94 150.213 130.7L148.313 132.54C147.887 132.047 147.393 131.653 146.833 131.36C146.287 131.067 145.633 130.92 144.873 130.92C144.207 130.92 143.58 131.04 142.993 131.28C142.407 131.507 141.893 131.833 141.453 132.26C141.027 132.687 140.687 133.207 140.433 133.82C140.18 134.42 140.053 135.093 140.053 135.84C140.053 136.587 140.18 137.267 140.433 137.88C140.687 138.48 141.027 138.993 141.453 139.42C141.893 139.847 142.407 140.18 142.993 140.42C143.58 140.647 144.207 140.76 144.873 140.76C145.673 140.76 146.38 140.6 146.993 140.28C147.62 139.947 148.173 139.48 148.653 138.88L150.573 140.7ZM152.225 128.68H154.845V132.7L154.685 134.48H154.845C155.125 134.013 155.525 133.633 156.045 133.34C156.579 133.033 157.172 132.88 157.825 132.88C159.092 132.88 160.025 133.253 160.625 134C161.239 134.747 161.545 135.767 161.545 137.06V143H158.925V137.38C158.925 136.7 158.765 136.187 158.445 135.84C158.125 135.48 157.679 135.3 157.105 135.3C156.745 135.3 156.425 135.38 156.145 135.54C155.865 135.687 155.625 135.893 155.425 136.16C155.239 136.427 155.092 136.74 154.985 137.1C154.892 137.447 154.845 137.82 154.845 138.22V143H152.225V128.68ZM170.49 141.72H170.33C170.023 142.213 169.61 142.607 169.09 142.9C168.57 143.18 167.977 143.32 167.31 143.32C166.07 143.32 165.143 142.94 164.53 142.18C163.93 141.42 163.63 140.407 163.63 139.14V133.2H166.25V138.82C166.25 139.527 166.403 140.053 166.71 140.4C167.03 140.733 167.49 140.9 168.09 140.9C168.45 140.9 168.763 140.827 169.03 140.68C169.31 140.52 169.543 140.313 169.73 140.06C169.93 139.793 170.077 139.487 170.17 139.14C170.277 138.78 170.33 138.4 170.33 138V133.2H172.95V143H170.49V141.72ZM175.194 133.2H177.654V134.56H177.814C177.934 134.32 178.094 134.1 178.294 133.9C178.494 133.7 178.714 133.527 178.954 133.38C179.208 133.233 179.474 133.12 179.754 133.04C180.048 132.96 180.334 132.92 180.614 132.92C180.961 132.92 181.254 132.953 181.494 133.02C181.748 133.087 181.961 133.173 182.134 133.28L181.434 135.66C181.274 135.58 181.094 135.52 180.894 135.48C180.708 135.427 180.474 135.4 180.194 135.4C179.834 135.4 179.508 135.473 179.214 135.62C178.921 135.753 178.668 135.947 178.454 136.2C178.254 136.453 178.094 136.753 177.974 137.1C177.868 137.433 177.814 137.8 177.814 138.2V143H175.194V133.2ZM192.033 140.5C191.607 141.327 191.007 142.007 190.233 142.54C189.473 143.06 188.52 143.32 187.373 143.32C186.613 143.32 185.913 143.193 185.273 142.94C184.647 142.673 184.1 142.307 183.633 141.84C183.18 141.373 182.82 140.827 182.553 140.2C182.3 139.56 182.173 138.86 182.173 138.1C182.173 137.34 182.3 136.64 182.553 136C182.82 135.36 183.18 134.813 183.633 134.36C184.1 133.893 184.647 133.533 185.273 133.28C185.913 133.013 186.613 132.88 187.373 132.88C188.507 132.88 189.46 133.14 190.233 133.66C191.007 134.18 191.573 134.853 191.933 135.68L189.533 136.68C189.307 136.227 189.013 135.887 188.653 135.66C188.307 135.42 187.867 135.3 187.333 135.3C186.987 135.3 186.66 135.367 186.353 135.5C186.047 135.633 185.773 135.82 185.533 136.06C185.307 136.3 185.127 136.593 184.993 136.94C184.86 137.287 184.793 137.673 184.793 138.1C184.793 138.527 184.86 138.913 184.993 139.26C185.127 139.607 185.307 139.9 185.533 140.14C185.773 140.38 186.047 140.567 186.353 140.7C186.66 140.833 186.987 140.9 187.333 140.9C187.88 140.9 188.34 140.78 188.713 140.54C189.1 140.287 189.407 139.927 189.633 139.46L192.033 140.5ZM193.632 128.68H196.252V132.7L196.092 134.48H196.252C196.532 134.013 196.932 133.633 197.452 133.34C197.985 133.033 198.578 132.88 199.232 132.88C200.498 132.88 201.432 133.253 202.032 134C202.645 134.747 202.952 135.767 202.952 137.06V143H200.332V137.38C200.332 136.7 200.172 136.187 199.852 135.84C199.532 135.48 199.085 135.3 198.512 135.3C198.152 135.3 197.832 135.38 197.552 135.54C197.272 135.687 197.032 135.893 196.832 136.16C196.645 136.427 196.498 136.74 196.392 137.1C196.298 137.447 196.252 137.82 196.252 138.22V143H193.632V128.68Z" fill="#0B3FA8"/>
</svg>
