<svg width="117" height="117" viewBox="0 0 117 117" fill="none" xmlns="http://www.w3.org/2000/svg">
<path d="M58.8237 116.353C90.9536 116.353 117 90.3061 117 58.1763C117 26.0464 90.9536 0 58.8237 0C26.6939 0 0.647461 26.0464 0.647461 58.1763C0.647461 90.3061 26.6939 116.353 58.8237 116.353Z" fill="#EBF9FD"/>
<path d="M80.1364 34.8509C77.941 35.5826 75.1969 37.1377 73.093 38.6012C69.3427 41.1624 63.4884 46.0105 60.4699 50.0352C58.8234 52.2306 56.3536 55.7065 53.8839 60.0972L52.2374 63.3902L50.6823 62.0181C47.9382 58.908 44.3708 57.5359 42.2669 57.5359C39.0654 57.5359 36.6871 58.2677 36.0468 59.9142C35.315 61.4692 35.6809 62.1095 38.2421 64.0305C38.9739 64.5793 40.346 65.7684 41.0778 66.5917C43.9134 69.5188 45.8343 72.3544 47.9382 77.0195C49.4017 80.404 51.5971 81.959 52.6947 81.959C54.1583 81.959 54.4327 81.8675 55.1645 81.5016C55.6218 81.2272 56.1707 80.6784 56.4451 80.404C56.7195 80.0381 57.7257 77.6598 58.8234 75.0986C61.0187 69.6103 62.2078 67.1405 64.0373 63.5731C68.5194 54.9747 75.1054 47.1996 81.0511 41.1624C82.2402 39.9733 83.2464 38.7842 83.4294 38.4183C83.7953 37.595 83.7953 36.6803 83.3379 35.857C82.6061 34.3935 81.5999 34.3935 80.1364 34.8509Z" fill="#4FC677"/>
<path d="M82.9739 38.8751C82.5166 39.424 81.7848 40.2472 81.053 40.979C75.1073 47.0161 68.5213 54.6998 64.0392 63.3897C62.2097 66.8656 61.0206 69.4268 58.8253 74.8237C57.8191 77.3849 56.7214 79.7632 56.447 80.129C56.2641 80.4949 55.6237 80.9523 55.2579 81.2267C54.5261 81.6841 54.2517 81.6841 52.7881 81.6841C52.6966 81.6841 52.5137 81.6841 52.4222 81.5926C52.2393 81.2267 52.0563 80.8608 51.8734 80.4949C49.861 75.8299 47.8486 72.9942 45.013 70.0671C44.3727 69.4268 43.5494 68.695 42.8177 68.0547C42.2688 67.4144 41.72 66.8656 41.1712 66.3168C40.7138 65.8594 40.165 65.3106 39.6161 64.8532C39.5247 64.4873 39.7076 64.03 39.8905 63.4811C40.6223 61.9261 43.0006 61.1029 46.1106 61.1029C48.2145 61.1029 51.6904 62.4749 54.5261 65.585L56.0811 66.9571L57.7276 63.6641C60.1974 59.2734 62.6671 55.8889 64.3136 53.6021C67.2407 49.5774 73.0949 44.8208 76.9368 42.1681C78.6747 41.0705 80.9615 39.6984 82.9739 38.8751Z" fill="#A5F9BE"/>
</svg>
