<svg width="47" height="47" viewBox="0 0 47 47" fill="none" xmlns="http://www.w3.org/2000/svg">
<path d="M23.1763 47C35.9762 47 46.3525 36.6236 46.3525 23.8237C46.3525 11.0238 35.9762 0.647461 23.1763 0.647461C10.3764 0.647461 0 11.0238 0 23.8237C0 36.6236 10.3764 47 23.1763 47Z" fill="#EBF9FD"/>
<path d="M31.6668 14.5313C30.7922 14.8228 29.699 15.4423 28.8608 16.0254C27.3668 17.0457 25.0346 18.9771 23.832 20.5805C23.1761 21.455 22.1922 22.8398 21.2083 24.5889L20.5524 25.9008L19.9329 25.3542C18.8397 24.1152 17.4185 23.5686 16.5803 23.5686C15.3049 23.5686 14.3574 23.8601 14.1024 24.5161C13.8108 25.1355 13.9566 25.3906 14.9769 26.1559C15.2685 26.3745 15.8151 26.8483 16.1066 27.1762C17.2363 28.3423 18.0015 29.472 18.8397 31.3305C19.4227 32.6788 20.2973 33.2983 20.7346 33.2983C21.3176 33.2983 21.4269 33.2618 21.7185 33.1161C21.9007 33.0067 22.1193 32.7881 22.2286 32.6788C22.338 32.533 22.7388 31.5855 23.1761 30.5652C24.0507 28.3788 24.5244 27.3949 25.2532 25.9737C27.0388 22.5483 29.6625 19.4508 32.0312 17.0457C32.5049 16.572 32.9058 16.0983 32.9786 15.9525C33.1244 15.6245 33.1244 15.2601 32.9422 14.9322C32.6507 14.3491 32.2498 14.3491 31.6668 14.5313Z" fill="#4FC677"/>
<path d="M32.7972 16.1345C32.615 16.3532 32.3235 16.6811 32.032 16.9727C29.6633 19.3777 27.0396 22.4388 25.254 25.9006C24.5252 27.2854 24.0515 28.3057 23.1769 30.4557C22.776 31.476 22.3387 32.4235 22.2294 32.5693C22.1565 32.715 21.9015 32.8972 21.7557 33.0066C21.4642 33.1888 21.3548 33.1888 20.7718 33.1888C20.7354 33.1888 20.6625 33.1888 20.626 33.1523C20.5532 33.0066 20.4803 32.8608 20.4074 32.715C19.6057 30.8566 18.804 29.7269 17.6743 28.5608C17.4193 28.3057 17.0913 28.0142 16.7998 27.7591C16.5811 27.504 16.3625 27.2854 16.1438 27.0667C15.9616 26.8845 15.743 26.6659 15.5243 26.4837C15.4879 26.3379 15.5608 26.1557 15.6337 25.9371C15.9252 25.3176 16.8726 24.9896 18.1116 24.9896C18.9498 24.9896 20.3345 25.5362 21.4642 26.7752L22.0837 27.3218L22.7396 26.0099C23.7235 24.2608 24.7074 22.9125 25.3633 22.0015C26.5294 20.3981 28.8616 18.5032 30.3921 17.4464C31.0845 17.0091 31.9955 16.4625 32.7972 16.1345Z" fill="#A5F9BE"/>
</svg>
