<svg width="38" height="38" viewBox="0 0 38 38" fill="none" xmlns="http://www.w3.org/2000/svg">
<circle cx="18.5714" cy="18.5714" r="18.5714" fill="white"/>
<path d="M27.8571 18.7886C27.8571 24.0867 24.1695 27.8571 18.7237 27.8571C13.5023 27.8571 9.28572 23.7085 9.28572 18.5714C9.28572 13.4343 13.5023 9.28572 18.7237 9.28572C21.2658 9.28572 23.4046 10.2031 25.0524 11.7157L22.4836 14.1457C19.1232 10.9557 12.8744 13.352 12.8744 18.5714C12.8744 21.8102 15.5041 24.4349 18.7237 24.4349C22.4608 24.4349 23.8612 21.799 24.082 20.4323H18.7237V17.2385H27.7087C27.7963 17.714 27.8571 18.1708 27.8571 18.7886Z" fill="#0B3FA8"/>
</svg>
