<svg width="38" height="38" viewBox="0 0 38 38" fill="none" xmlns="http://www.w3.org/2000/svg">
<circle cx="18.5714" cy="18.5714" r="18.5714" fill="white"/>
<path d="M18.5021 13.6286C15.8063 13.6286 13.6318 15.8036 13.6318 18.5C13.6318 21.1964 15.8063 23.3714 18.5021 23.3714C21.1979 23.3714 23.3724 21.1964 23.3724 18.5C23.3724 15.8036 21.1979 13.6286 18.5021 13.6286ZM18.5021 21.667C16.76 21.667 15.3358 20.2467 15.3358 18.5C15.3358 16.7533 16.7558 15.333 18.5021 15.333C20.2485 15.333 21.6684 16.7533 21.6684 18.5C21.6684 20.2467 20.2442 21.667 18.5021 21.667ZM24.7076 13.4294C24.7076 14.0611 24.1989 14.5656 23.5716 14.5656C22.94 14.5656 22.4356 14.0568 22.4356 13.4294C22.4356 12.8019 22.9443 12.2931 23.5716 12.2931C24.1989 12.2931 24.7076 12.8019 24.7076 13.4294ZM27.9332 14.5826C27.8612 13.0605 27.5136 11.7123 26.3988 10.6015C25.2883 9.49074 23.9404 9.14309 22.4187 9.06677C20.8504 8.97774 16.1496 8.97774 14.5813 9.06677C13.0639 9.13885 11.716 9.4865 10.6012 10.5973C9.48639 11.7081 9.14306 13.0563 9.06676 14.5783C8.97775 16.147 8.97775 20.8488 9.06676 22.4174C9.13882 23.9395 9.48639 25.2877 10.6012 26.3985C11.716 27.5093 13.0596 27.8569 14.5813 27.9332C16.1496 28.0223 20.8504 28.0223 22.4187 27.9332C23.9404 27.8612 25.2883 27.5135 26.3988 26.3985C27.5094 25.2877 27.8569 23.9395 27.9332 22.4174C28.0223 20.8488 28.0223 16.1512 27.9332 14.5826ZM25.9071 24.1006C25.5765 24.9316 24.9365 25.5717 24.1014 25.9067C22.851 26.4027 19.8839 26.2882 18.5021 26.2882C17.1203 26.2882 14.149 26.3985 12.9028 25.9067C12.072 25.576 11.432 24.9358 11.0971 24.1006C10.6012 22.8499 10.7156 19.8821 10.7156 18.5C10.7156 17.1179 10.6054 14.1459 11.0971 12.8994C11.4277 12.0684 12.0678 11.4283 12.9028 11.0933C14.1532 10.5973 17.1203 10.7118 18.5021 10.7118C19.8839 10.7118 22.8553 10.6015 24.1014 11.0933C24.9322 11.424 25.5723 12.0642 25.9071 12.8994C26.4031 14.1501 26.2886 17.1179 26.2886 18.5C26.2886 19.8821 26.4031 22.8541 25.9071 24.1006Z" fill="#1946A7"/>
</svg>
