<svg width="220" height="62" viewBox="0 0 220 62" fill="none" xmlns="http://www.w3.org/2000/svg">
<g opacity="0.9">
<g opacity="0.9">
<path opacity="0.9" d="M92.374 44.0459H91.9916C91.4564 44.9635 90.6152 45.8047 89.3917 46.4929C88.2447 47.1811 86.7918 47.487 85.1095 47.487C83.6566 47.487 82.2801 47.1811 80.9802 46.5694C79.6802 45.9576 78.5332 45.1165 77.5391 44.1224C76.545 43.0518 75.7803 41.8283 75.1686 40.3754C74.5568 38.9225 74.3274 37.3167 74.3274 35.5579C74.3274 33.7991 74.6333 32.1933 75.1686 30.7404C75.7803 29.2875 76.545 27.9875 77.5391 26.9934C78.5332 25.9229 79.6802 25.0817 80.9802 24.5464C82.2801 23.9347 83.6566 23.6288 85.1095 23.6288C86.7918 23.6288 88.2447 23.9347 89.3917 24.6229C90.5387 25.3111 91.3799 26.0758 91.9916 27.0699H92.374L91.9916 23.8582V13.9173H98.0326V46.7223H92.374V44.0459ZM86.333 41.9813C87.0976 41.9813 87.8623 41.8283 88.627 41.5224C89.3152 41.2166 90.0034 40.8342 90.5387 40.2989C91.074 39.7637 91.5328 39.0754 91.8387 38.3108C92.1446 37.5461 92.374 36.6285 92.374 35.6344C92.374 34.6403 92.221 33.7226 91.8387 32.958C91.5328 32.1933 91.074 31.5051 90.5387 30.9698C90.0034 30.4345 89.3152 29.9757 88.627 29.7463C87.9388 29.4404 87.1741 29.2875 86.333 29.2875C85.5683 29.2875 84.8036 29.4404 84.0389 29.7463C83.3507 30.0522 82.6625 30.511 82.1272 31.0462C81.5919 31.5815 81.1331 32.2697 80.8272 33.0344C80.5213 33.7991 80.2919 34.7167 80.2919 35.7108C80.2919 36.7049 80.4449 37.5461 80.8272 38.3872C81.1331 39.1519 81.5919 39.8401 82.1272 40.3754C82.6625 40.9107 83.3507 41.3695 84.0389 41.6754C84.8036 41.8283 85.5683 41.9813 86.333 41.9813Z" fill="white"/>
<path opacity="0.9" d="M124.185 41.3695C123.114 43.2048 121.738 44.6577 119.979 45.8047C118.22 46.9517 116.079 47.487 113.556 47.487C111.873 47.487 110.268 47.1811 108.815 46.5694C107.362 45.9576 106.138 45.1165 105.068 44.0459C103.997 42.9754 103.156 41.6754 102.544 40.299C101.932 38.8461 101.627 37.2402 101.627 35.4815C101.627 33.8756 101.932 32.3462 102.468 30.8933C103.079 29.4404 103.844 28.1405 104.915 27.0699C105.985 25.9994 107.209 25.1582 108.585 24.47C110.038 23.8582 111.568 23.4759 113.25 23.4759C115.085 23.4759 116.691 23.7818 118.067 24.3935C119.444 25.0053 120.667 25.8464 121.585 26.8405C122.503 27.8346 123.267 29.1346 123.726 30.5875C124.185 32.0404 124.491 33.5697 124.491 35.252C124.491 35.4815 124.491 35.6344 124.491 35.7873C124.491 35.9403 124.414 36.1697 124.414 36.3226C124.414 36.4755 124.338 36.6285 124.338 36.8579H107.438C107.591 37.7755 107.821 38.5402 108.203 39.2284C108.585 39.9166 109.044 40.4519 109.656 40.9107C110.191 41.3695 110.803 41.6754 111.491 41.9048C112.179 42.1342 112.867 42.2107 113.556 42.2107C114.932 42.2107 116.079 41.9048 116.997 41.2931C117.914 40.6813 118.603 39.9166 119.138 38.9225L124.185 41.3695ZM118.756 32.6521C118.756 32.2698 118.603 31.811 118.373 31.3521C118.144 30.8933 117.838 30.4345 117.379 29.9757C116.92 29.5169 116.385 29.211 115.697 28.9052C115.009 28.5993 114.244 28.5228 113.326 28.5228C112.026 28.5228 110.879 28.9052 109.962 29.5934C108.968 30.3581 108.279 31.3522 107.897 32.6521H118.756Z" fill="white"/>
<path opacity="0.9" d="M142.461 44.3518H142.079C141.39 45.193 140.549 45.9576 139.555 46.5694C138.561 47.1811 137.261 47.487 135.732 47.487C134.585 47.487 133.514 47.3341 132.444 46.9517C131.449 46.5694 130.532 46.0341 129.767 45.3459C129.002 44.6577 128.391 43.893 128.008 42.8989C127.626 41.9048 127.397 40.9107 127.397 39.7637C127.397 38.6167 127.626 37.5461 128.085 36.6285C128.544 35.7109 129.155 34.8697 129.997 34.258C130.838 33.5697 131.832 33.1109 132.902 32.7286C134.049 32.3462 135.196 32.1933 136.573 32.1933C138.026 32.1933 139.249 32.2698 140.167 32.4992C141.084 32.7286 141.926 32.958 142.537 33.1874V32.4992C142.537 31.2757 142.079 30.3581 141.084 29.5169C140.167 28.7522 138.943 28.3699 137.567 28.3699C135.502 28.3699 133.743 29.211 132.291 30.9698L127.932 27.9875C130.302 25.0053 133.591 23.4759 137.72 23.4759C141.237 23.4759 143.837 24.317 145.673 25.9229C147.508 27.5287 148.425 29.9757 148.425 33.1874V46.6459H142.537V44.3518H142.461ZM142.461 37.6226C141.773 37.3167 141.008 37.0108 140.243 36.8579C139.479 36.6285 138.714 36.552 137.796 36.552C136.343 36.552 135.273 36.8579 134.508 37.4696C133.743 38.0814 133.361 38.8461 133.361 39.7637C133.361 40.6813 133.743 41.446 134.508 41.9813C135.273 42.5166 136.114 42.8224 137.108 42.8224C137.873 42.8224 138.637 42.6695 139.326 42.3636C140.014 42.0577 140.549 41.6754 141.008 41.2166C141.467 40.7578 141.849 40.2225 142.079 39.5343C142.384 38.999 142.461 38.3108 142.461 37.6226Z" fill="white"/>
<path opacity="0.9" d="M153.166 46.7988V13.9173H159.207V46.7223H153.166V46.7988Z" fill="white"/>
<path opacity="0.9" d="M164.331 46.7988V13.9173H170.372V46.7223H164.331V46.7988Z" fill="white"/>
<path opacity="0.9" d="M191.018 43.8165H190.636C189.948 44.9635 188.954 45.8047 187.807 46.4929C186.583 47.1811 185.283 47.487 183.754 47.487C180.924 47.487 178.783 46.6458 177.407 44.8871C176.03 43.1283 175.342 40.8342 175.342 37.9284V24.317H181.383V37.2402C181.383 38.846 181.766 40.0695 182.454 40.8342C183.142 41.5989 184.213 41.9813 185.589 41.9813C186.43 41.9813 187.118 41.8283 187.807 41.446C188.418 41.0636 188.954 40.6048 189.412 39.9931C189.871 39.3813 190.177 38.6931 190.407 37.8519C190.636 37.0108 190.712 36.1696 190.712 35.252V24.317H196.753V46.7988H191.095V43.8165H191.018Z" fill="white"/>
<path opacity="0.9" d="M210.441 47.487C208.989 47.487 207.689 47.3341 206.542 46.9517C205.394 46.5694 204.4 46.1106 203.559 45.4988C202.718 44.8871 202.03 44.1989 201.418 43.4342C200.806 42.6695 200.424 41.9048 200.118 41.0637L205.471 38.7696C206.006 39.9166 206.694 40.7578 207.536 41.3695C208.377 41.9048 209.371 42.2107 210.441 42.2107C211.512 42.2107 212.43 41.9813 213.041 41.5989C213.653 41.2166 214.035 40.7578 214.035 40.146C214.035 39.5343 213.806 39.0755 213.271 38.6931C212.735 38.3108 211.818 38.0049 210.518 37.699L207.383 37.0108C206.694 36.8579 205.93 36.6285 205.165 36.2461C204.4 35.9403 203.712 35.4815 203.1 34.9462C202.489 34.4109 201.953 33.7992 201.571 33.0345C201.189 32.2698 200.959 31.4286 200.959 30.4345C200.959 29.364 201.189 28.3699 201.648 27.5287C202.106 26.6876 202.795 25.9229 203.559 25.3876C204.4 24.7759 205.318 24.3171 206.465 24.0112C207.612 23.7053 208.759 23.5524 210.059 23.5524C212.2 23.5524 214.112 23.9347 215.794 24.7759C217.477 25.617 218.7 26.9935 219.541 28.7522L214.341 30.8933C213.882 29.9757 213.271 29.364 212.43 28.9816C211.588 28.5993 210.747 28.3699 209.983 28.3699C209.141 28.3699 208.377 28.5228 207.765 28.9052C207.153 29.2875 206.771 29.6699 206.771 30.2816C206.771 30.8169 207.077 31.1992 207.536 31.5051C208.071 31.811 208.759 32.1168 209.753 32.3463L213.194 33.1874C215.488 33.7227 217.171 34.6403 218.318 35.7873C219.465 37.0108 220 38.3873 220 40.0696C220 41.0637 219.771 41.9813 219.312 42.8989C218.853 43.8165 218.241 44.5812 217.4 45.2694C216.559 45.9577 215.565 46.4929 214.341 46.8753C213.194 47.3341 211.894 47.487 210.441 47.487Z" fill="white"/>
</g>
</g>
<path d="M30.7404 0C13.7643 0 0 13.7643 0 30.7404C0 47.7164 13.7643 61.4807 30.7404 61.4807C47.7164 61.4807 61.4807 47.7164 61.4807 30.7404C61.4807 13.7643 47.6399 0 30.7404 0ZM19.4995 26.5346C19.5759 26.5346 19.6524 26.6111 19.7289 26.6111H21.1053V28.4463L19.423 29.5933V26.5346H19.4995ZM40.9871 36.0932C40.3754 37.699 39.4578 39.0754 38.3107 40.2225C37.1637 41.3695 35.7108 42.2871 34.0285 42.8988C32.3462 43.5106 30.5109 43.8929 28.3698 43.8929H22.6347C20.8759 43.8929 19.423 42.44 19.423 40.6813V36.0932L20.2642 35.4814C21.1818 34.8697 22.4053 34.8697 23.3229 35.4814L26.0758 37.3931C26.5346 37.699 27.0699 37.3931 27.0699 36.8578V33.1109L27.8345 33.6462C28.5992 34.105 29.2875 33.1109 28.6757 32.6521L22.4818 28.3698V26.5346H23.8582C24.2405 26.5346 24.4699 26.2287 24.4699 25.9228C24.4699 25.617 24.1641 25.3111 23.8582 25.3111H22.4818V23.9347C22.4818 23.5523 22.1759 23.3229 21.87 23.3229H21.7171C21.3347 23.3229 21.1053 23.6288 21.1053 23.9347V25.3111H19.7289C19.6524 25.3111 19.5759 25.3111 19.4995 25.3876V20.723C19.4995 18.9642 20.9524 17.5113 22.7112 17.5113H28.4463C30.5109 17.5113 32.4227 17.8172 34.105 18.5054C35.7873 19.1171 37.1637 20.0348 38.3872 21.1818C39.5342 22.3288 40.4519 23.7817 41.0636 25.3876C41.6754 26.9934 41.9812 28.8286 41.9812 30.7404C41.9812 32.6521 41.6754 34.4873 40.9871 36.0932Z" fill="white"/>
</svg>
