<svg width="221" height="62" viewBox="0 0 221 62" fill="none" xmlns="http://www.w3.org/2000/svg">
<path d="M92.5 44.5236H92.1171C91.5811 45.4424 90.7388 46.2847 89.5136 46.9739C88.365 47.6631 86.9101 47.9693 85.2255 47.9693C83.7707 47.9693 82.3923 47.6631 81.0906 47.0505C79.7889 46.4379 78.6403 45.5956 77.6448 44.6001C76.6494 43.5281 75.8837 42.303 75.2711 40.8481C74.6585 39.3932 74.4288 37.7852 74.4288 36.024C74.4288 34.2628 74.7351 32.6548 75.2711 31.1999C75.8837 29.745 76.6494 28.4433 77.6448 27.4478C78.6403 26.3758 79.7889 25.5335 81.0906 24.9975C82.3923 24.3849 83.7707 24.0786 85.2255 24.0786C86.9101 24.0786 88.365 24.3849 89.5136 25.0741C90.6622 25.7632 91.5045 26.529 92.1171 27.5244H92.5L92.1171 24.3083V14.3539H98.1663V47.2036H92.5V44.5236ZM86.4507 42.4561C87.2164 42.4561 87.9822 42.303 88.7479 41.9967C89.437 41.6904 90.1262 41.3075 90.6622 40.7715C91.1982 40.2355 91.6577 39.5463 91.9639 38.7806C92.2702 38.0149 92.5 37.096 92.5 36.1006C92.5 35.1051 92.3468 34.1862 91.9639 33.4205C91.6577 32.6548 91.1982 31.9656 90.6622 31.4296C90.1262 30.8936 89.437 30.4342 88.7479 30.2045C88.0587 29.8982 87.293 29.745 86.4507 29.745C85.685 29.745 84.9193 29.8982 84.1535 30.2045C83.4644 30.5107 82.7752 30.9702 82.2392 31.5062C81.7032 32.0422 81.2438 32.7314 80.9375 33.4971C80.6312 34.2628 80.4015 35.1817 80.4015 36.1771C80.4015 37.1726 80.5546 38.0149 80.9375 38.8572C81.2438 39.6229 81.7032 40.3121 82.2392 40.8481C82.7752 41.3841 83.4644 41.8435 84.1535 42.1498C84.9193 42.303 85.685 42.4561 86.4507 42.4561Z" fill="#162338"/>
<path d="M124.354 41.8435C123.282 43.6812 121.904 45.1361 120.143 46.2847C118.382 47.4333 116.238 47.9693 113.711 47.9693C112.026 47.9693 110.418 47.663 108.963 47.0504C107.508 46.4378 106.283 45.5955 105.211 44.5235C104.139 43.4515 103.297 42.1497 102.684 40.7714C102.072 39.3166 101.765 37.7085 101.765 35.9473C101.765 34.3393 102.072 32.8079 102.608 31.353C103.22 29.8981 103.986 28.5964 105.058 27.5243C106.13 26.4523 107.355 25.61 108.733 24.9209C110.188 24.3083 111.72 23.9254 113.404 23.9254C115.242 23.9254 116.85 24.2317 118.228 24.8443C119.607 25.4569 120.832 26.2992 121.751 27.2946C122.67 28.2901 123.435 29.5918 123.895 31.0467C124.354 32.5016 124.661 34.033 124.661 35.7176C124.661 35.9473 124.661 36.1005 124.661 36.2536C124.661 36.4068 124.584 36.6365 124.584 36.7896C124.584 36.9428 124.507 37.0959 124.507 37.3257H107.585C107.738 38.2445 107.968 39.0103 108.351 39.6994C108.733 40.3886 109.193 40.9246 109.805 41.384C110.341 41.8435 110.954 42.1497 111.643 42.3795C112.332 42.6092 113.021 42.6858 113.711 42.6858C115.089 42.6858 116.238 42.3795 117.156 41.7669C118.075 41.1543 118.764 40.3886 119.3 39.3931L124.354 41.8435ZM118.918 33.1142C118.918 32.7313 118.764 32.2719 118.535 31.8124C118.305 31.353 117.999 30.8935 117.539 30.4341C117.08 29.9747 116.544 29.6684 115.855 29.3621C115.166 29.0558 114.4 28.9792 113.481 28.9792C112.179 28.9792 111.031 29.3621 110.112 30.0512C109.116 30.817 108.427 31.8124 108.044 33.1142H118.918Z" fill="#162338"/>
<path d="M142.655 44.8298H142.272C141.583 45.6721 140.741 46.4378 139.745 47.0504C138.75 47.663 137.448 47.9693 135.917 47.9693C134.768 47.9693 133.696 47.8161 132.624 47.4333C131.629 47.0504 130.71 46.5144 129.944 45.8252C129.178 45.1361 128.566 44.3704 128.183 43.3749C127.8 42.3795 127.57 41.384 127.57 40.2354C127.57 39.0868 127.8 38.0148 128.259 37.0959C128.719 36.1771 129.331 35.3348 130.174 34.7222C131.016 34.033 132.012 33.5736 133.084 33.1907C134.232 32.8079 135.381 32.6547 136.759 32.6547C138.214 32.6547 139.439 32.7313 140.358 32.961C141.277 33.1907 142.119 33.4204 142.732 33.6502V32.961C142.732 31.7358 142.272 30.817 141.277 29.9747C140.358 29.2089 139.133 28.8261 137.754 28.8261C135.687 28.8261 133.926 29.6684 132.471 31.4296L128.106 28.4432C130.48 25.4569 133.773 23.9254 137.908 23.9254C141.43 23.9254 144.033 24.7677 145.871 26.3757C147.709 27.9838 148.628 30.4341 148.628 33.6502V47.127H142.732V44.8298H142.655ZM142.655 38.0914C141.966 37.7851 141.2 37.4788 140.435 37.3257C139.669 37.0959 138.903 37.0194 137.984 37.0194C136.529 37.0194 135.457 37.3257 134.692 37.9382C133.926 38.5508 133.543 39.3165 133.543 40.2354C133.543 41.1543 133.926 41.92 134.692 42.456C135.457 42.992 136.3 43.2983 137.295 43.2983C138.061 43.2983 138.827 43.1452 139.516 42.8389C140.205 42.5326 140.741 42.1497 141.2 41.6903C141.66 41.2309 142.043 40.6949 142.272 40.0057C142.579 39.4697 142.655 38.7805 142.655 38.0914Z" fill="#162338"/>
<path d="M153.375 47.2802V14.3539H159.425V47.2036H153.375V47.2802Z" fill="#162338"/>
<path d="M164.555 47.2802V14.3539H170.604V47.2036H164.555V47.2802Z" fill="#162338"/>
<path d="M191.279 44.2938H190.896C190.207 45.4424 189.211 46.2847 188.063 46.9738C186.838 47.663 185.536 47.9693 184.004 47.9693C181.171 47.9693 179.027 47.127 177.649 45.3658C176.271 43.6046 175.581 41.3074 175.581 38.3977V24.7677H181.631V37.7085C181.631 39.3165 182.014 40.5417 182.703 41.3074C183.392 42.0732 184.464 42.456 185.842 42.456C186.685 42.456 187.374 42.3029 188.063 41.92C188.675 41.5371 189.211 41.0777 189.671 40.4651C190.13 39.8525 190.437 39.1634 190.666 38.3211C190.896 37.4788 190.973 36.6365 190.973 35.7176V24.7677H197.022V47.2801H191.355V44.2938H191.279Z" fill="#162338"/>
<path d="M210.728 47.9692C209.273 47.9692 207.972 47.8161 206.823 47.4332C205.675 47.0504 204.679 46.5909 203.837 45.9784C202.995 45.3658 202.305 44.6766 201.693 43.9109C201.08 43.1452 200.697 42.3794 200.391 41.5371L205.751 39.2399C206.287 40.3885 206.976 41.2308 207.819 41.8434C208.661 42.3794 209.656 42.6857 210.728 42.6857C211.8 42.6857 212.719 42.456 213.332 42.0731C213.944 41.6903 214.327 41.2308 214.327 40.6183C214.327 40.0057 214.098 39.5462 213.562 39.1634C213.026 38.7805 212.107 38.4742 210.805 38.1679L207.665 37.4788C206.976 37.3256 206.211 37.0959 205.445 36.713C204.679 36.4068 203.99 35.9473 203.377 35.4113C202.765 34.8753 202.229 34.2627 201.846 33.497C201.463 32.7313 201.233 31.889 201.233 30.8935C201.233 29.8215 201.463 28.826 201.923 27.9837C202.382 27.1414 203.071 26.3757 203.837 25.8397C204.679 25.2271 205.598 24.7677 206.747 24.4614C207.895 24.1551 209.044 24.002 210.346 24.002C212.49 24.002 214.404 24.3848 216.088 25.2271C217.773 26.0694 218.998 27.4477 219.841 29.2089L214.634 31.3529C214.174 30.4341 213.562 29.8215 212.719 29.4386C211.877 29.0558 211.035 28.826 210.269 28.826C209.427 28.826 208.661 28.9792 208.048 29.3621C207.436 29.7449 207.053 30.1278 207.053 30.7404C207.053 31.2764 207.359 31.6592 207.819 31.9655C208.355 32.2718 209.044 32.5781 210.039 32.8078L213.485 33.6501C215.782 34.1861 217.467 35.105 218.615 36.2536C219.764 37.4788 220.3 38.8571 220.3 40.5417C220.3 41.5371 220.07 42.456 219.611 43.3749C219.151 44.2937 218.539 45.0595 217.696 45.7486C216.854 46.4378 215.859 46.9738 214.634 47.3567C213.485 47.8161 212.183 47.9692 210.728 47.9692Z" fill="#162338"/>
<path d="M30.7823 0.417725C13.7831 0.417725 0 14.2008 0 31.2C0 48.1992 13.7831 61.9823 30.7823 61.9823C47.7814 61.9823 61.5645 48.1992 61.5645 31.2C61.5645 14.2008 47.7049 0.417725 30.7823 0.417725ZM19.5261 26.9885C19.6026 26.9885 19.6792 27.0651 19.7558 27.0651H21.1341V28.9028L19.4495 30.0514V26.9885H19.5261ZM41.043 36.5601C40.4304 38.1681 39.5116 39.5464 38.363 40.695C37.2144 41.8436 35.7595 42.7625 34.0749 43.3751C32.3903 43.9877 30.5526 44.3705 28.4085 44.3705H22.6656C20.9044 44.3705 19.4495 42.9156 19.4495 41.1545V36.5601L20.2918 35.9475C21.2107 35.3349 22.4358 35.3349 23.3547 35.9475L26.1113 37.8618C26.5708 38.1681 27.1068 37.8618 27.1068 37.3258V33.5737L27.8725 34.1098C28.6382 34.5692 29.3274 33.5738 28.7148 33.1143L22.5124 28.8262V26.9885H23.8907C24.2736 26.9885 24.5033 26.6822 24.5033 26.3759C24.5033 26.0696 24.197 25.7633 23.8907 25.7633H22.5124V24.385C22.5124 24.0021 22.2061 23.7724 21.8998 23.7724H21.7467C21.3638 23.7724 21.1341 24.0787 21.1341 24.385V25.7633H19.7558C19.6792 25.7633 19.6026 25.7633 19.5261 25.8399V21.169C19.5261 19.4078 20.981 17.9529 22.7421 17.9529H28.4851C30.5526 17.9529 32.4669 18.2592 34.1515 18.9483C35.8361 19.5609 37.2144 20.4798 38.4396 21.6284C39.5881 22.777 40.507 24.2319 41.1196 25.8399C41.7322 27.4479 42.0385 29.2857 42.0385 31.2C42.0385 33.1143 41.7322 34.9521 41.043 36.5601Z" fill="#0B3FA8"/>
</svg>
