<svg width="294" height="175" viewBox="0 0 294 175" fill="none" xmlns="http://www.w3.org/2000/svg">
<rect width="294" height="175" rx="5" fill="white"/>
<rect x="0.5" y="0.5" width="293" height="174" rx="4.5" stroke="white" stroke-opacity="0.6"/>
<path d="M116 64C116 41.3776 97.6224 23 75 23C52.3776 23 34 41.3776 34 64C34 86.6224 52.3776 105 75 105C97.6224 105 116 86.6224 116 64Z" fill="#957663"/>
<path d="M116 64C116 41.3776 97.6224 23 75 23V105C97.6224 105 116 86.6224 116 64Z" fill="#896E5E"/>
<mask id="mask0_545_14" style="mask-type:alpha" maskUnits="userSpaceOnUse" x="34" y="23" width="82" height="82">
<path d="M116 64C116 41.3776 97.6224 23 75 23C52.3776 23 34 41.3776 34 64C34 86.6224 52.3776 105 75 105C97.6224 105 116 86.6224 116 64Z" fill="#957663"/>
</mask>
<g mask="url(#mask0_545_14)">
<path d="M82.4765 82.1846C82.4765 82.1846 93.9082 83.8728 95.5965 85.6093C97.0435 87.1528 100.131 101.768 100.806 105C80.74 105 75 105 75 105V84.2105L82.4765 82.1846Z" fill="#2A2D34"/>
<path d="M81.0295 74.6117H69.0189V87.7799H81.0295V74.6117Z" fill="#D9A78C"/>
<path d="M75 36.6505C80.8365 36.6505 90.0494 39.9787 90.0494 55.5105C90.0494 64.4823 87.1071 70.367 85.8529 71.9587C84.6953 73.454 78.0871 76.6376 75 76.6376C75 60.9611 75 36.6505 75 36.6505Z" fill="#EAC0A7"/>
<path d="M92.9435 59.2247C93.1847 56.7647 92.0271 54.5458 90.2906 54.3047C88.5541 54.0635 86.9624 55.8964 86.7212 58.3564C86.48 60.8164 87.6377 63.0352 89.3741 63.2764C91.1106 63.5176 92.7024 61.6846 92.9435 59.2247Z" fill="#EAC0A7"/>
<path d="M75 36.6505C69.1635 36.6505 59.9506 39.9787 59.9506 55.5105C59.9506 64.4823 62.8929 70.367 64.147 71.9587C65.3047 73.454 71.9129 76.6376 75 76.6376C75 60.9611 75 36.6505 75 36.6505Z" fill="#F2D7BC"/>
<path d="M57.0565 59.2247C56.8153 56.7647 57.973 54.5458 59.7095 54.3047C61.4459 54.0635 63.0377 55.8964 63.2789 58.3564C63.52 60.8164 62.3624 63.0352 60.6259 63.2764C58.8895 63.5176 57.2977 61.6846 57.0565 59.2247Z" fill="#F2D7BC"/>
<path d="M67.1377 39.9307C67.1377 39.9307 62.0247 45.9601 64.0024 51.6036C64.34 58.3083 63.6647 60.5754 61.4941 62.4566C62.0247 55.9448 61.3977 53.7742 58.9859 54.546C58.0694 49.433 60.1436 35.686 67.1377 39.9307Z" fill="#690102"/>
<path d="M82.8141 39.9307C82.8141 39.9307 87.927 45.9601 85.9494 51.6036C85.6117 58.3083 86.287 60.5754 88.4576 62.4566C87.927 55.9448 88.5541 53.7742 90.9659 54.546C91.9306 49.433 89.8082 35.686 82.8141 39.9307Z" fill="#690102"/>
<path d="M67.5235 82.1846C67.5235 82.1846 56.0917 83.8728 54.4035 85.6093C52.9564 87.1528 49.8694 101.768 49.1941 105C69.26 105 75 105 75 105V84.2105L67.5235 82.1846Z" fill="#2F343A"/>
<path d="M82.6211 81.8953L75 83.4388L67.3788 81.8953L75 105" fill="#B9C7D0"/>
<path d="M74.373 86.5742L73.1189 102.202L75.0001 105L76.8813 102.202L75.6271 86.5742H74.373Z" fill="#129E95"/>
<path d="M69.5012 91.88L63.4718 82.9082C65.1118 82.3294 66.8965 81.847 68.7777 81.5576L75 105L66.2695 92.507L69.5012 91.88Z" fill="#3A404C"/>
<path d="M80.4988 91.88L86.5282 82.9082C84.8882 82.3294 83.1035 81.847 81.2224 81.5576L75 105L83.7306 92.507L80.4988 91.88Z" fill="#3A404C"/>
<path d="M77.0259 85.5611L75 87.6834L72.9741 85.5611L75 83.4387L77.0259 85.5611Z" fill="#129E95"/>
<path d="M75 83.4387L81.0776 80.3517L84.2612 82.1846L77.7012 87.394L75 83.4387Z" fill="white"/>
<path d="M74.9999 83.4387L68.9223 80.3517L65.7388 82.1846L72.1541 87.394L74.9999 83.4387Z" fill="white"/>
<path d="M89.3741 42.5836C86.9624 32.7436 72.3471 24.9777 62.073 40.4613C61.3977 43.5001 64.2918 44.9472 64.2918 44.9472C64.2918 44.9472 66.2212 40.4613 75 42.5354C79.3894 41.5707 83.6341 40.8472 85.6118 44.8989C87.5894 48.9507 89.3741 42.5836 89.3741 42.5836Z" fill="#690102"/>
<path d="M83.6341 69.9813C80.6435 69.9813 78.4729 67.5213 75 67.5213C71.527 67.5213 69.4047 69.9813 66.3658 69.9813C63.0858 69.9813 60.9635 64.2895 60.3364 62.3119C61.2047 68.0519 63.1341 71.8142 64.0988 73.0684C65.2564 74.5637 71.8647 77.7472 74.9517 77.7472C78.0388 77.7472 84.647 74.5637 85.8047 73.0684C86.7694 71.8142 88.747 68.0519 89.567 62.3119C88.9882 64.2895 86.9141 69.9813 83.6341 69.9813Z" fill="#690102"/>
<path d="M74.9999 72.7306C76.0129 72.7306 76.8329 72.2965 76.8329 71.7659H73.167C73.167 72.2965 73.987 72.7306 74.9999 72.7306Z" fill="white"/>
</g>
<path d="M183 65C183 41.8259 164.174 23 141 23C117.826 23 99 41.8259 99 65C99 88.1741 117.826 107 141 107C164.174 107 183 88.1741 183 65Z" fill="#3C1EB3"/>
<path d="M183 65C183 41.8259 164.174 23 141 23V107C164.174 107 183 88.1741 183 65Z" fill="#280D96"/>
<mask id="mask1_545_14" style="mask-type:alpha" maskUnits="userSpaceOnUse" x="99" y="23" width="84" height="84">
<path d="M183 65C183 41.8259 164.174 23 141 23C117.826 23 99 41.8259 99 65C99 88.1741 117.826 107 141 107C164.174 107 183 88.1741 183 65Z" fill="#B5332B"/>
</mask>
<g mask="url(#mask1_545_14)">
<path d="M141.099 95.8824H126.028C126.028 95.8824 119.111 89.1624 122.569 79.2307C126.028 69.2989 129.042 65.3459 129.289 54.7224C139.715 54.7224 141.099 54.7224 141.099 54.7224V95.8824Z" fill="#870B16"/>
<path d="M140.703 95.8824H155.725C155.725 95.8824 162.642 89.1624 159.183 79.2307C155.725 69.2989 152.711 65.3459 152.463 54.7224C142.038 54.7224 140.654 54.7224 140.654 54.7224V95.8824H140.703Z" fill="#870B16"/>
<path d="M159.48 50.2259C159.48 40.0965 151.228 31.8447 141.099 31.8447C130.92 31.8447 122.718 40.0965 122.718 50.2259C122.718 60.3553 130.969 68.6071 141.099 68.6071C151.228 68.6071 159.48 60.4047 159.48 50.2259Z" fill="#870B16"/>
<path d="M147.226 89.6071L141 107.099L134.922 89.6071V76.1177H147.226V89.6071Z" fill="#EAC8AD"/>
<path d="M141.099 38.7623C135.12 38.7623 125.682 42.1223 125.682 58.0329C125.682 67.2235 129.24 71.5717 130.574 73.2023C131.76 74.7341 137.936 79.6753 141.099 79.6753C141.099 63.6164 141.099 38.7623 141.099 38.7623Z" fill="#F2D7BC"/>
<path d="M122.668 61.8377C122.421 59.3177 123.607 57.0448 125.386 56.7977C127.165 56.5507 128.795 58.4283 129.042 60.9483C129.289 63.4683 128.103 65.7413 126.325 65.9883C124.595 66.2354 122.965 64.3577 122.668 61.8377Z" fill="#F2D7BC"/>
<path d="M141.049 38.7623C147.028 38.7623 156.466 42.1717 156.466 58.0823C156.466 67.2729 152.908 71.6212 151.574 73.2517C150.388 74.7835 144.212 79.7247 141.049 79.7247C141.049 63.6164 141.049 38.7623 141.049 38.7623Z" fill="#EAC0A7"/>
<path d="M159.48 61.8377C159.727 59.3177 158.541 57.0448 156.762 56.7977C154.984 56.5507 153.353 58.4283 153.106 60.9483C152.859 63.5177 154.045 65.7413 155.824 65.9883C157.553 66.2354 159.184 64.3577 159.48 61.8377Z" fill="#EAC0A7"/>
<path d="M140.852 34.9082C140.555 34.8588 140.259 34.8588 139.962 34.8588C139.962 34.8588 129.882 35.5999 127.066 48.7435C125.732 49.7317 123.261 53.6846 126.522 58.0823C126.967 54.3764 128.35 51.7082 130.673 50.6705C134.823 48.8423 136.553 50.5223 141.395 46.8164C144.212 44.6423 145.249 40.2941 144.607 37.8729C143.47 34.8094 140.605 34.9576 140.852 34.9082Z" fill="#870B16"/>
<path d="M143.965 38.5153C143.965 38.5153 140.308 52.1035 156.219 57.7365C159.974 45.3835 153.057 37.28 143.965 38.5153Z" fill="#870B16"/>
<path d="M125.871 64.4629L124.893 65.4413L125.871 66.4194L126.849 65.441L125.871 64.4629Z" fill="#FFF200"/>
<path d="M156.467 64.4879L155.489 65.4663L156.467 66.4445L157.445 65.466L156.467 64.4879Z" fill="#FFF200"/>
<path d="M141 107.099V90.2989C141 90.2989 136.405 89.1624 135.416 85.4565C134.922 83.6777 134.922 82.2448 134.922 82.2448C134.922 82.2448 124.892 85.6542 122.668 89.113C120.791 94.6471 120.296 107.099 120.296 107.099H141Z" fill="#F8A41D"/>
<path d="M141 107.099V90.2989C141 90.2989 145.595 89.1624 146.584 85.4565C147.078 83.6777 147.078 82.2448 147.078 82.2448C147.078 82.2448 157.108 85.6542 159.332 89.113C161.209 94.6471 161.704 107.099 161.704 107.099H141Z" fill="#F98E1C"/>
<path d="M141.099 74.0918C143.421 74.0918 145.299 72.6588 145.299 70.88H136.849C136.849 72.6588 138.727 74.0918 141.099 74.0918Z" fill="white"/>
</g>
<path d="M46.18 143.32C44.06 143.32 42.2867 142.607 40.86 141.18C39.4467 139.753 38.74 137.973 38.74 135.84C38.74 133.707 39.4467 131.933 40.86 130.52C42.2733 129.08 44.0467 128.36 46.18 128.36C48.34 128.36 50.0933 129.14 51.44 130.7L50.12 131.98C49.0933 130.74 47.78 130.12 46.18 130.12C44.5933 130.12 43.2667 130.653 42.2 131.72C41.1467 132.773 40.62 134.147 40.62 135.84C40.62 137.533 41.1467 138.907 42.2 139.96C43.2667 141.027 44.5933 141.56 46.18 141.56C47.8467 141.56 49.2933 140.86 50.52 139.46L51.86 140.76C51.18 141.573 50.3467 142.207 49.36 142.66C48.3733 143.1 47.3133 143.32 46.18 143.32ZM53.495 128.68H55.335V133.2L55.255 134.56H55.335C55.615 134.08 56.0417 133.68 56.615 133.36C57.2017 133.04 57.8083 132.88 58.435 132.88C59.635 132.88 60.555 133.227 61.195 133.92C61.8483 134.6 62.175 135.573 62.175 136.84V143H60.335V137.2C60.335 135.44 59.555 134.56 57.995 134.56C57.2483 134.56 56.615 134.873 56.095 135.5C55.5883 136.113 55.335 136.833 55.335 137.66V143H53.495V128.68ZM72.9348 143H71.1748V141.64H71.0948C70.8148 142.12 70.3815 142.52 69.7948 142.84C69.2215 143.16 68.6215 143.32 67.9948 143.32C66.7948 143.32 65.8682 142.98 65.2148 142.3C64.5748 141.607 64.2548 140.627 64.2548 139.36V133.2H66.0948V139.24C66.1348 140.84 66.9415 141.64 68.5148 141.64C69.2482 141.64 69.8615 141.347 70.3548 140.76C70.8482 140.16 71.0948 139.447 71.0948 138.62V133.2H72.9348V143ZM77.0147 143H75.1747V133.2H76.9347V134.8H77.0147C77.2014 134.28 77.5814 133.84 78.1547 133.48C78.7414 133.107 79.3147 132.92 79.8747 132.92C80.408 132.92 80.8614 133 81.2347 133.16L80.6747 134.94C80.448 134.847 80.088 134.8 79.5947 134.8C78.9014 134.8 78.2947 135.08 77.7747 135.64C77.268 136.2 77.0147 136.853 77.0147 137.6V143ZM86.3148 143.32C84.8615 143.32 83.6548 142.827 82.6948 141.84C81.7482 140.827 81.2748 139.58 81.2748 138.1C81.2748 136.593 81.7482 135.347 82.6948 134.36C83.6548 133.373 84.8615 132.88 86.3148 132.88C87.3148 132.88 88.1882 133.133 88.9348 133.64C89.6815 134.133 90.2415 134.82 90.6148 135.7L88.9348 136.4C88.4148 135.173 87.5015 134.56 86.1948 134.56C85.3548 134.56 84.6282 134.9 84.0148 135.58C83.4148 136.26 83.1148 137.1 83.1148 138.1C83.1148 139.1 83.4148 139.94 84.0148 140.62C84.6282 141.3 85.3548 141.64 86.1948 141.64C87.5415 141.64 88.4882 141.027 89.0348 139.8L90.6748 140.5C90.3148 141.38 89.7482 142.073 88.9748 142.58C88.2148 143.073 87.3282 143.32 86.3148 143.32ZM92.2841 128.68H94.1241V133.2L94.0441 134.56H94.1241C94.4041 134.08 94.8307 133.68 95.4041 133.36C95.9907 133.04 96.5974 132.88 97.2241 132.88C98.4241 132.88 99.3441 133.227 99.9841 133.92C100.637 134.6 100.964 135.573 100.964 136.84V143H99.1241V137.2C99.1241 135.44 98.3441 134.56 96.7841 134.56C96.0374 134.56 95.4041 134.873 94.8841 135.5C94.3774 136.113 94.1241 136.833 94.1241 137.66V143H92.2841V128.68ZM116.073 139.18C116.073 140.433 115.613 141.44 114.693 142.2C113.76 142.947 112.626 143.32 111.293 143.32C110.106 143.32 109.06 142.973 108.153 142.28C107.246 141.587 106.62 140.64 106.273 139.44L108.033 138.72C108.153 139.147 108.32 139.533 108.533 139.88C108.746 140.227 108.993 140.527 109.273 140.78C109.566 141.02 109.886 141.213 110.233 141.36C110.58 141.493 110.946 141.56 111.333 141.56C112.173 141.56 112.86 141.347 113.393 140.92C113.926 140.48 114.193 139.9 114.193 139.18C114.193 138.58 113.973 138.067 113.533 137.64C113.12 137.227 112.346 136.827 111.213 136.44C110.066 136.027 109.353 135.747 109.073 135.6C107.553 134.827 106.793 133.687 106.793 132.18C106.793 131.127 107.213 130.227 108.053 129.48C108.906 128.733 109.953 128.36 111.193 128.36C112.286 128.36 113.233 128.64 114.033 129.2C114.833 129.747 115.366 130.433 115.633 131.26L113.913 131.98C113.753 131.447 113.433 131.007 112.953 130.66C112.486 130.3 111.913 130.12 111.233 130.12C110.513 130.12 109.906 130.32 109.413 130.72C108.92 131.093 108.673 131.58 108.673 132.18C108.673 132.673 108.866 133.1 109.253 133.46C109.68 133.82 110.606 134.247 112.033 134.74C113.486 135.233 114.52 135.84 115.133 136.56C115.76 137.267 116.073 138.14 116.073 139.18ZM121.34 143.16C120.54 143.16 119.873 142.913 119.34 142.42C118.82 141.927 118.553 141.24 118.54 140.36V134.88H116.82V133.2H118.54V130.2H120.38V133.2H122.78V134.88H120.38V139.76C120.38 140.413 120.507 140.86 120.76 141.1C121.013 141.327 121.3 141.44 121.62 141.44C121.767 141.44 121.907 141.427 122.04 141.4C122.187 141.36 122.32 141.313 122.44 141.26L123.02 142.9C122.54 143.073 121.98 143.16 121.34 143.16ZM125.675 140C125.675 140.48 125.875 140.88 126.275 141.2C126.688 141.52 127.168 141.68 127.715 141.68C128.488 141.68 129.175 141.393 129.775 140.82C130.388 140.247 130.695 139.573 130.695 138.8C130.122 138.347 129.322 138.12 128.295 138.12C127.548 138.12 126.922 138.3 126.415 138.66C125.922 139.02 125.675 139.467 125.675 140ZM128.055 132.88C129.415 132.88 130.488 133.247 131.275 133.98C132.062 134.7 132.455 135.693 132.455 136.96V143H130.695V141.64H130.615C129.855 142.76 128.842 143.32 127.575 143.32C126.495 143.32 125.588 143 124.855 142.36C124.135 141.72 123.775 140.92 123.775 139.96C123.775 138.947 124.155 138.14 124.915 137.54C125.688 136.94 126.715 136.64 127.995 136.64C129.088 136.64 129.988 136.84 130.695 137.24V136.82C130.695 136.18 130.442 135.64 129.935 135.2C129.428 134.747 128.835 134.52 128.155 134.52C127.128 134.52 126.315 134.953 125.715 135.82L124.095 134.8C124.988 133.52 126.308 132.88 128.055 132.88ZM137.375 133.2H141.775V131.78C141.775 130.807 142.082 130.02 142.695 129.42C143.322 128.82 144.122 128.52 145.095 128.52C145.762 128.52 146.308 128.633 146.735 128.86L146.235 130.48C145.915 130.32 145.555 130.24 145.155 130.24C144.702 130.24 144.328 130.4 144.035 130.72C143.755 131.027 143.615 131.44 143.615 131.96V133.2H146.175V134.88H143.615V143H141.775V134.88H137.375V143H135.535V134.88H133.695V133.2H135.535V131.78C135.535 130.807 135.842 130.02 136.455 129.42C137.082 128.82 137.882 128.52 138.855 128.52C139.522 128.52 140.068 128.633 140.495 128.86L139.995 130.48C139.675 130.32 139.315 130.24 138.915 130.24C138.462 130.24 138.088 130.4 137.795 130.72C137.515 131.027 137.375 131.44 137.375 131.96V133.2Z" fill="#7080A0"/>
</svg>
