<svg width="38" height="38" viewBox="0 0 38 38" fill="none" xmlns="http://www.w3.org/2000/svg">
<circle cx="18.5714" cy="18.5714" r="18.5714" fill="white"/>
<path d="M27.7398 14.4848C27.7527 14.6797 27.7527 14.8788 27.7527 15.0736C27.7527 21.0779 23.2152 28 14.9223 28C12.3656 28 9.99375 27.2554 8 25.961C8.36094 26.0043 8.71328 26.0173 9.08711 26.0173C11.1969 26.0173 13.1348 25.2987 14.6859 24.0779C12.7051 24.0346 11.0422 22.7273 10.4707 20.9264C10.75 20.9697 11.0293 20.9957 11.3215 20.9957C11.7254 20.9957 12.1293 20.9394 12.5074 20.8398C10.4406 20.4199 8.89375 18.5887 8.89375 16.381V16.3247C9.49531 16.6623 10.1914 16.8745 10.9305 16.9004C9.71445 16.0866 8.91953 14.6926 8.91953 13.1169C8.91953 12.2727 9.14297 11.4978 9.53398 10.8225C11.7555 13.5844 15.0898 15.3853 18.8324 15.5844C18.7637 15.2468 18.7207 14.8961 18.7207 14.5455C18.7207 12.039 20.7316 10 23.2281 10C24.5258 10 25.6988 10.5498 26.5238 11.4329C27.5422 11.2381 28.5219 10.8571 29.3855 10.3377C29.0504 11.3939 28.3371 12.2771 27.4047 12.8398C28.3113 12.7403 29.1922 12.4892 30 12.1385C29.3855 13.039 28.6164 13.8398 27.7398 14.4848Z" fill="#0B3FA8"/>
</svg>
